<?xml version="1.0" standalone="no"?>
<!DOCTYPE svg PUBLIC "-//W3C//DTD SVG 20010904//EN"
 "http://www.w3.org/TR/2001/REC-SVG-20010904/DTD/svg10.dtd">
<svg version="1.0" xmlns="http://www.w3.org/2000/svg"
 width="515.000000pt" height="515.000000pt" viewBox="0 0 515.000000 515.000000"
 preserveAspectRatio="xMidYMid meet">
<metadata>
Created by potrace 1.14, written by Peter Selinger 2001-2017
</metadata>
<g transform="translate(0.000000,515.000000) scale(0.100000,-0.100000)"
fill="#000000" stroke="none">
<path d="M2430 5143 c0 -5 -38 -9 -83 -9 -46 -1 -114 -7 -153 -14 -38 -6 -82
-14 -99 -16 -16 -3 -37 -7 -45 -10 -8 -3 -31 -8 -50 -10 -19 -3 -37 -8 -40
-12 -3 -4 -21 -8 -40 -10 -19 -1 -37 -6 -40 -10 -3 -4 -9 -7 -15 -7 -28 -1
-85 -17 -85 -24 0 -5 -6 -8 -12 -7 -26 2 -127 -37 -121 -47 3 -5 1 -7 -4 -4
-10 6 -33 -1 -115 -36 -15 -6 -24 -15 -22 -19 3 -4 -2 -5 -10 -2 -9 3 -16 1
-16 -6 0 -6 -4 -9 -9 -5 -5 3 -15 0 -23 -7 -7 -7 -19 -14 -26 -16 -27 -5 -81
-40 -74 -47 4 -5 2 -5 -5 -1 -12 7 -61 -18 -75 -39 -4 -5 -8 -7 -8 -2 0 10
-81 -42 -103 -67 -10 -12 -15 -15 -11 -7 7 15 -72 -41 -113 -79 -13 -11 -25
-20 -29 -19 -3 0 -23 -15 -45 -35 -22 -19 -53 -45 -69 -56 -17 -12 -28 -26
-24 -31 3 -5 2 -8 -3 -7 -14 5 -93 -64 -86 -75 3 -6 2 -7 -4 -4 -12 8 -85 -71
-77 -84 3 -5 0 -8 -8 -7 -7 2 -12 -4 -10 -12 2 -8 0 -12 -4 -8 -9 10 -35 -12
-28 -23 3 -5 0 -8 -6 -7 -7 2 -17 -6 -23 -16 -7 -10 -29 -37 -49 -60 -21 -23
-38 -44 -38 -48 0 -5 -9 -17 -20 -28 -12 -12 -18 -26 -14 -32 4 -7 3 -8 -4 -4
-7 4 -12 3 -12 -2 0 -5 -11 -22 -25 -38 -25 -29 -29 -39 -25 -59 1 -5 -2 -7
-6 -2 -11 10 -66 -81 -58 -95 4 -7 3 -8 -4 -4 -7 4 -12 1 -12 -8 0 -9 -4 -16
-9 -16 -9 0 -35 -54 -31 -66 1 -4 -2 -10 -7 -13 -10 -8 -30 -38 -45 -71 -6
-14 -22 -47 -34 -74 -13 -27 -21 -53 -18 -57 3 -5 0 -9 -5 -9 -6 0 -10 -3 -9
-7 1 -5 -4 -19 -11 -31 -7 -13 -10 -26 -7 -29 3 -3 -2 -12 -10 -21 -9 -8 -13
-23 -11 -34 3 -10 1 -16 -3 -13 -5 3 -12 -9 -16 -27 -10 -42 -9 -40 -18 -60
-4 -9 -4 -22 0 -29 4 -7 3 -9 -3 -6 -7 4 -14 -9 -19 -31 -4 -20 -8 -39 -9 -42
-9 -28 -16 -59 -19 -80 -2 -14 -7 -33 -11 -43 -4 -9 -5 -26 -2 -37 3 -10 0
-21 -5 -22 -6 -2 -11 -31 -12 -65 0 -33 -5 -59 -9 -56 -5 3 -7 -10 -6 -29 2
-18 0 -39 -4 -45 -5 -7 -8 -32 -8 -55 0 -24 -2 -116 -4 -206 -2 -89 -1 -161 3
-158 4 2 7 -26 7 -62 1 -86 14 -206 24 -210 4 -1 5 -17 3 -34 -3 -21 -1 -29 7
-24 7 4 9 1 5 -8 -8 -20 35 -206 47 -206 6 0 8 -4 5 -9 -9 -14 58 -213 68
-204 5 4 6 3 3 -3 -4 -7 0 -28 8 -48 8 -20 15 -38 15 -41 0 -3 12 -29 27 -58
27 -52 29 -58 32 -78 0 -5 6 -7 13 -3 7 4 8 3 4 -5 -4 -6 1 -23 11 -39 10 -15
29 -48 42 -75 13 -26 28 -47 32 -47 5 0 8 -3 8 -7 -3 -21 2 -33 13 -27 6 4 8
3 4 -4 -3 -6 1 -17 9 -25 8 -9 15 -20 15 -26 0 -6 5 -11 10 -11 6 0 10 -6 10
-13 0 -7 9 -23 20 -35 11 -12 20 -26 20 -32 0 -5 3 -10 8 -10 4 0 15 -14 24
-31 11 -18 22 -27 29 -23 8 4 9 3 5 -5 -9 -13 18 -43 29 -33 5 4 5 1 1 -6 -9
-16 12 -44 27 -35 5 3 7 1 4 -4 -9 -14 72 -105 85 -96 6 3 8 1 5 -4 -4 -6 22
-42 58 -79 35 -38 65 -66 65 -61 0 4 21 -15 47 -43 26 -27 50 -50 54 -50 5 0
20 -11 34 -26 14 -14 30 -22 37 -18 6 4 8 3 5 -3 -9 -14 19 -37 34 -27 7 4 9
3 6 -3 -9 -14 19 -37 34 -27 7 4 9 3 6 -3 -9 -14 19 -37 33 -28 6 4 9 2 8 -5
-2 -6 10 -18 27 -28 16 -9 38 -25 49 -34 18 -17 25 -19 43 -17 3 0 10 -6 15
-15 5 -9 13 -14 19 -11 5 4 9 2 9 -3 0 -13 81 -53 93 -45 7 3 9 2 4 -2 -9 -11
122 -77 136 -68 5 3 7 1 4 -4 -9 -14 48 -37 64 -27 8 4 10 3 5 -4 -4 -7 -2
-13 3 -13 16 -2 23 -4 64 -23 21 -9 43 -14 49 -10 7 4 8 3 4 -4 -4 -7 -1 -13
8 -13 18 -2 25 -3 46 -12 50 -20 113 -36 121 -32 5 4 9 2 9 -3 0 -12 96 -33
116 -25 12 4 15 3 10 -5 -7 -12 0 -13 59 -17 11 -1 25 -4 31 -7 10 -7 74 -16
152 -24 24 -2 47 -6 53 -9 14 -9 431 -16 426 -8 -3 5 24 6 59 5 35 -2 64 0 64
5 0 4 17 8 37 7 21 -1 70 5 108 12 39 8 81 15 95 17 59 9 100 20 96 26 -2 3 8
7 22 7 41 2 87 14 90 24 2 5 9 7 16 4 8 -3 31 2 52 12 22 9 44 18 49 19 6 1
13 3 18 5 4 1 10 3 15 4 28 6 162 60 162 66 0 4 6 7 13 7 21 1 147 70 140 77
-4 4 0 4 9 1 8 -3 22 0 29 7 8 7 21 14 29 16 8 2 21 11 28 20 7 9 14 15 15 13
4 -8 47 10 47 20 0 5 7 9 15 9 9 0 18 7 21 15 4 8 10 13 14 10 4 -2 19 6 33
19 14 13 28 22 30 20 2 -2 17 8 33 23 16 15 31 28 34 28 16 1 69 48 64 57 -5
7 -2 8 5 4 15 -10 53 23 44 37 -3 6 -1 7 6 3 14 -9 43 12 35 25 -3 5 -1 8 4 7
13 -4 93 68 84 77 -4 5 -2 5 4 2 14 -8 77 56 67 68 -5 4 -3 5 3 2 14 -8 47 26
37 38 -5 4 -3 5 4 1 12 -7 40 31 35 47 -1 5 1 6 6 3 14 -8 55 41 47 55 -5 7
-4 10 2 6 6 -4 21 7 34 25 13 17 32 40 41 51 10 11 15 24 12 29 -3 4 0 7 8 6
7 -2 12 5 12 14 -1 10 2 16 6 13 11 -7 82 104 74 117 -4 7 -3 8 4 4 13 -8 35
28 24 39 -4 5 -2 6 4 2 5 -3 19 11 29 31 11 20 27 49 37 63 9 14 15 29 11 33
-3 3 -2 6 4 6 12 0 35 48 28 60 -3 4 2 11 11 14 8 3 12 10 9 16 -3 5 -1 10 4
10 6 0 11 5 11 10 0 6 9 29 19 53 39 83 51 119 44 130 -3 6 -1 7 5 3 11 -7 13
-3 16 37 1 6 4 14 8 17 4 3 9 15 11 25 1 11 6 26 10 33 5 6 6 16 3 21 -4 5 -2
11 3 13 12 4 48 136 47 170 -1 14 2 24 6 22 4 -3 9 4 9 15 1 12 2 24 3 29 10
41 17 73 21 102 2 19 9 64 14 100 5 36 9 88 8 117 -1 28 1 49 4 47 4 -2 7 68
7 156 0 88 -3 158 -7 156 -3 -2 -5 25 -3 61 2 36 -1 63 -5 60 -4 -3 -8 16 -9
41 -1 86 -33 253 -47 245 -6 -3 -7 -1 -3 6 11 17 -4 92 -16 84 -7 -3 -8 -1 -4
5 9 14 -13 102 -26 102 -5 0 -6 5 -3 10 3 6 3 16 -2 23 -8 13 -10 18 -12 43 0
8 -5 12 -11 9 -5 -3 -7 0 -4 9 3 8 -1 30 -9 48 -8 18 -22 53 -32 78 -9 25 -22
51 -28 59 -6 7 -12 20 -14 29 -1 9 -7 18 -13 20 -5 2 -8 7 -5 12 7 11 -15 60
-27 60 -5 0 -7 4 -4 9 3 4 -2 17 -10 27 -9 10 -12 13 -8 5 5 -9 3 -12 -5 -7
-6 4 -9 12 -6 17 6 9 -42 99 -60 111 -6 5 -6 8 0 8 6 0 1 7 -9 15 -11 8 -16
15 -10 15 5 0 1 7 -9 14 -10 8 -18 16 -17 18 4 7 -43 78 -52 78 -5 0 -7 4 -3
9 3 6 0 13 -7 18 -7 4 -21 22 -30 38 -10 17 -23 28 -30 27 -7 -2 -10 0 -6 4
10 9 -31 66 -43 58 -5 -3 -8 -1 -7 4 5 16 -42 73 -54 66 -6 -4 -8 -3 -4 4 3 6
-5 19 -19 30 -14 11 -25 24 -25 29 0 14 -47 52 -56 45 -4 -4 -4 -2 -1 4 8 14
-26 47 -38 37 -4 -5 -5 -3 -2 4 9 14 -41 55 -56 46 -6 -3 -7 -1 -3 5 7 12 -80
89 -96 84 -5 -1 -7 2 -4 7 3 4 -13 21 -37 37 -23 16 -44 31 -47 34 -26 26 -82
60 -92 54 -6 -4 -8 -3 -5 3 7 11 -39 46 -60 46 -7 0 -10 4 -8 8 7 10 -25 20
-37 12 -7 -3 -8 -1 -4 6 5 7 -5 17 -28 26 -19 8 -38 20 -41 26 -4 5 -14 8 -22
5 -9 -4 -11 -2 -7 6 5 8 1 9 -12 4 -10 -4 -15 -4 -11 0 10 10 -82 56 -95 48
-7 -5 -8 -2 -3 6 6 10 4 12 -9 7 -9 -4 -14 -3 -11 2 5 9 -20 22 -39 20 -5 0
-12 3 -15 8 -7 11 -118 56 -137 56 -8 0 -14 5 -14 10 0 5 -6 7 -14 4 -8 -3
-16 -3 -18 1 -5 11 -106 44 -117 38 -5 -3 -11 -1 -13 6 -2 6 -20 12 -40 12
-20 1 -34 4 -32 8 3 5 -37 15 -96 23 -8 1 -23 6 -33 10 -10 4 -21 5 -24 1 -3
-3 -12 -1 -20 5 -7 6 -22 9 -32 6 -11 -3 -21 -1 -23 4 -2 5 -38 11 -80 12 -41
1 -74 6 -71 10 3 4 -13 8 -34 8 -21 -1 -116 1 -210 4 -95 3 -173 2 -173 -2z
m206 -450 c10 -32 19 -67 20 -78 0 -11 7 -38 13 -58 7 -21 10 -41 7 -44 -3 -3
0 -15 6 -26 6 -11 12 -43 13 -71 6 -102 34 -184 75 -214 30 -22 109 -32 142
-18 9 4 25 3 35 -2 19 -11 73 -137 73 -174 1 -51 5 -78 13 -78 5 0 6 -4 3 -9
-4 -5 -1 -22 6 -38 6 -15 13 -35 14 -43 1 -8 4 -36 7 -61 4 -25 11 -58 16 -73
6 -14 11 -37 10 -49 0 -12 3 -42 6 -67 3 -25 8 -70 11 -100 3 -30 11 -80 19
-110 7 -30 13 -66 13 -80 0 -40 32 -223 41 -234 5 -6 33 -83 62 -171 29 -88
56 -162 59 -165 10 -8 70 -135 70 -148 0 -6 20 -50 44 -99 24 -48 49 -106 56
-128 7 -22 17 -45 22 -52 5 -7 7 -16 5 -20 -3 -5 3 -25 13 -46 10 -21 21 -52
25 -70 10 -47 26 -96 47 -144 10 -24 18 -47 18 -53 0 -5 4 -10 9 -10 5 0 11
-19 15 -42 4 -23 11 -47 15 -53 5 -5 16 -36 26 -68 10 -33 24 -64 30 -71 7 -6
15 -29 19 -51 4 -22 13 -49 20 -60 7 -11 23 -53 36 -93 13 -39 26 -72 29 -72
7 0 14 -17 56 -125 15 -38 34 -79 41 -90 8 -11 14 -26 14 -35 0 -9 13 -31 30
-50 16 -19 29 -43 30 -53 0 -15 -7 -17 -42 -14 -24 3 -70 13 -103 22 -55 17
-150 21 -250 11 -33 -3 -45 8 -45 42 0 12 -5 22 -11 22 -5 0 -15 13 -20 30 -6
16 -15 30 -20 30 -5 0 -9 7 -9 15 0 8 -4 15 -10 15 -5 0 -9 3 -9 8 3 19 -3 31
-31 61 -17 17 -27 31 -23 31 5 0 3 4 -2 8 -18 12 -84 186 -119 312 -7 25 -22
66 -34 93 -11 26 -19 47 -17 47 3 0 -4 15 -14 33 -10 17 -21 45 -25 60 -6 27
-13 38 -44 72 -7 8 -10 15 -7 15 4 0 -11 17 -32 37 -21 21 -42 37 -46 35 -5
-1 -6 2 -2 7 3 6 -3 16 -15 23 -11 7 -20 17 -20 21 0 5 -18 27 -40 49 -22 23
-40 47 -40 55 0 7 -10 23 -21 34 -17 17 -22 37 -25 97 -2 42 -8 80 -13 85 -13
13 -356 11 -408 -2 -24 -6 -46 -10 -50 -9 -5 0 -15 -1 -23 -5 -45 -17 -89 -21
-225 -23 -82 -1 -167 3 -189 8 -53 13 -82 4 -91 -29 -3 -15 -15 -34 -26 -44
-10 -9 -22 -30 -25 -47 -4 -18 -10 -29 -15 -26 -5 3 -9 0 -9 -5 0 -6 0 -13 0
-16 0 -3 -12 -25 -25 -50 -14 -25 -23 -45 -20 -45 3 0 -1 -10 -10 -23 -8 -13
-12 -27 -8 -30 3 -4 1 -7 -6 -7 -8 0 -11 -6 -7 -16 3 -8 2 -13 -3 -10 -4 3
-16 -13 -26 -35 -16 -35 -26 -49 -64 -95 -16 -20 -42 -74 -34 -74 4 0 -2 -7
-13 -15 -10 -8 -14 -15 -9 -15 6 0 4 -4 -3 -9 -7 -4 -15 -14 -17 -22 -9 -38
-18 -59 -26 -59 -5 0 -9 -11 -9 -25 0 -16 -14 -39 -39 -63 -43 -41 -83 -110
-74 -125 3 -6 2 -7 -4 -4 -5 3 -24 -27 -42 -66 -19 -40 -44 -96 -58 -125 -13
-29 -21 -57 -18 -62 3 -6 1 -10 -4 -10 -6 0 -11 -7 -11 -15 0 -8 -4 -15 -10
-15 -5 0 -10 -5 -10 -12 0 -6 -7 -19 -15 -28 -8 -9 -17 -32 -19 -51 -2 -19 -4
-37 -5 -40 -2 -10 -215 -7 -228 3 -22 18 -149 11 -207 -11 -32 -13 -44 -8 -29
11 6 7 16 36 22 63 7 28 19 64 26 80 7 17 17 41 21 55 4 14 17 39 30 55 12 17
34 55 48 85 15 30 30 62 35 70 5 8 30 58 56 110 25 52 51 102 55 110 5 8 16
31 25 50 8 19 23 48 33 64 9 16 38 65 64 109 26 44 45 83 43 88 -6 9 49 120
77 158 10 13 15 27 12 32 -3 5 -1 9 4 9 10 0 72 111 72 130 0 7 7 28 16 48 21
51 54 123 65 144 5 10 9 24 9 32 0 7 7 19 15 26 8 7 13 16 10 20 -3 4 12 41
34 81 21 41 41 87 45 102 4 16 18 46 31 68 14 21 25 41 25 45 0 3 7 12 15 20
8 9 15 24 15 34 0 22 50 118 86 165 13 18 21 35 16 40 -4 5 -2 5 5 1 7 -4 17
3 24 16 7 13 18 27 25 31 8 4 14 13 14 19 0 6 6 16 14 22 28 21 119 182 148
261 16 44 36 90 44 102 8 12 14 28 14 35 0 7 6 25 14 39 10 21 22 54 31 89 0
3 11 34 23 70 11 36 23 76 25 90 6 49 147 310 168 310 5 0 18 17 29 38 11 20
29 51 40 67 11 17 27 46 36 65 9 20 32 47 51 60 36 27 99 123 109 168 18 81
26 82 50 5z"/>
<path d="M2435 3620 c-22 -44 -43 -80 -47 -80 -3 0 -13 -12 -21 -27 -45 -87
-63 -119 -75 -131 -7 -8 -10 -18 -6 -23 3 -5 0 -8 -6 -7 -13 3 -50 -52 -43
-64 2 -5 0 -8 -5 -8 -5 0 -15 -15 -22 -32 -7 -18 -24 -47 -37 -65 -12 -17 -23
-39 -23 -47 0 -9 -4 -16 -10 -16 -5 0 -10 -5 -10 -10 0 -6 -9 -29 -20 -53 -11
-23 -21 -53 -22 -67 -2 -14 -11 -34 -20 -44 -17 -19 -23 -51 -18 -103 1 -13
-7 -26 -19 -33 -25 -13 -28 -58 -5 -67 9 -3 154 -7 323 -8 168 -1 306 -3 306
-4 0 -10 189 -16 204 -7 6 4 11 18 11 31 0 25 -39 45 -91 45 -16 0 -29 5 -29
11 0 5 -6 7 -12 3 -7 -4 -10 -4 -6 1 4 4 0 22 -10 39 -9 17 -18 45 -19 61 -2
17 -6 53 -9 80 -3 28 -7 66 -9 86 -2 20 -6 45 -9 55 -3 11 -8 41 -11 69 -4 27
-10 52 -15 55 -4 3 -8 23 -7 45 0 22 -8 70 -17 106 -9 37 -18 77 -20 90 -2 13
-15 50 -29 82 -15 32 -26 61 -25 65 1 4 -1 17 -6 30 -6 17 -15 22 -40 22 -30
0 -34 -5 -71 -80z"/>
</g>
</svg>
